<?xml version="1.0" encoding="UTF-8" standalone="no"?>
<!-- Created with Inkscape (http://www.inkscape.org/) -->

<svg
   xmlns:dc="http://purl.org/dc/elements/1.1/"
   xmlns:cc="http://creativecommons.org/ns#"
   xmlns:rdf="http://www.w3.org/1999/02/22-rdf-syntax-ns#"
   xmlns:svg="http://www.w3.org/2000/svg"
   xmlns="http://www.w3.org/2000/svg"
   xmlns:sodipodi="http://sodipodi.sourceforge.net/DTD/sodipodi-0.dtd"
   xmlns:inkscape="http://www.inkscape.org/namespaces/inkscape"
   width="394"
   height="150"
   id="svg2"
   version="1.1"
   inkscape:version="0.48.3.1 r9886"
   inkscape:export-filename="/home/abraham/Descargas/borrame/karelapan/394x150.png"
   inkscape:export-xdpi="90"
   inkscape:export-ydpi="90"
   sodipodi:docname="Nuevo documento 1">
  <defs
     id="defs4">
    <filter
       height="1.3466884"
       y="-0.17334418"
       width="1.3028961"
       x="-0.15144807"
       id="filter3913"
       inkscape:collect="always"
       color-interpolation-filters="sRGB">
      <feGaussianBlur
         id="feGaussianBlur3915"
         stdDeviation="1.0414379"
         inkscape:collect="always" />
    </filter>
    <filter
       id="filter3909"
       inkscape:collect="always"
       color-interpolation-filters="sRGB">
      <feGaussianBlur
         id="feGaussianBlur3911"
         stdDeviation="0.55681314"
         inkscape:collect="always" />
    </filter>
    <filter
       id="filter3852"
       inkscape:collect="always"
       color-interpolation-filters="sRGB">
      <feGaussianBlur
         id="feGaussianBlur3854"
         stdDeviation="0.78812968"
         inkscape:collect="always" />
    </filter>
    <filter
       id="filter3852-6"
       inkscape:collect="always"
       color-interpolation-filters="sRGB">
      <feGaussianBlur
         id="feGaussianBlur3854-5"
         stdDeviation="0.78812968"
         inkscape:collect="always" />
    </filter>
    <filter
       id="filter3909-8"
       inkscape:collect="always"
       color-interpolation-filters="sRGB">
      <feGaussianBlur
         id="feGaussianBlur3911-7"
         stdDeviation="0.55681314"
         inkscape:collect="always" />
    </filter>
    <filter
       height="1.3466884"
       y="-0.17334418"
       width="1.3028961"
       x="-0.15144807"
       id="filter3913-3"
       inkscape:collect="always"
       color-interpolation-filters="sRGB">
      <feGaussianBlur
         id="feGaussianBlur3915-5"
         stdDeviation="1.0414379"
         inkscape:collect="always" />
    </filter>
    <filter
       height="1.3466884"
       y="-0.17334418"
       width="1.3028961"
       x="-0.15144807"
       id="filter3913-6"
       inkscape:collect="always"
       color-interpolation-filters="sRGB">
      <feGaussianBlur
         id="feGaussianBlur3915-3"
         stdDeviation="1.0414379"
         inkscape:collect="always" />
    </filter>
    <filter
       id="filter3909-1"
       inkscape:collect="always"
       color-interpolation-filters="sRGB">
      <feGaussianBlur
         id="feGaussianBlur3911-1"
         stdDeviation="0.55681314"
         inkscape:collect="always" />
    </filter>
    <filter
       id="filter3852-7"
       inkscape:collect="always"
       color-interpolation-filters="sRGB">
      <feGaussianBlur
         id="feGaussianBlur3854-6"
         stdDeviation="0.78812968"
         inkscape:collect="always" />
    </filter>
  </defs>
  <sodipodi:namedview
     id="base"
     pagecolor="#ffffff"
     bordercolor="#666666"
     borderopacity="1.0"
     inkscape:pageopacity="0.0"
     inkscape:pageshadow="2"
     inkscape:zoom="0.98994949"
     inkscape:cx="93.931542"
     inkscape:cy="67.759225"
     inkscape:document-units="px"
     inkscape:current-layer="layer1"
     showgrid="false"
     inkscape:window-width="1366"
     inkscape:window-height="694"
     inkscape:window-x="0"
     inkscape:window-y="25"
     inkscape:window-maximized="1" />
  <metadata
     id="metadata7">
    <rdf:RDF>
      <cc:Work
         rdf:about="">
        <dc:format>image/svg+xml</dc:format>
        <dc:type
           rdf:resource="http://purl.org/dc/dcmitype/StillImage" />
        <dc:title></dc:title>
      </cc:Work>
    </rdf:RDF>
  </metadata>
  <g
     inkscape:label="Capa 1"
     inkscape:groupmode="layer"
     id="layer1"
     transform="translate(0,-902.36218)">
    <g
       transform="translate(-94.921505,-191.57113)"
       id="layer1-1"
       inkscape:label="Capa 1">
      <path
         sodipodi:nodetypes="cccccccccc"
         inkscape:connector-curvature="0"
         id="rect5347-1-0-89-1"
         d="m 40.052901,1000.2192 5.479869,0.4376 0.669766,19.8323 1.69629,16.5529 5.225103,-0.4155 0.600896,-21.0675 0.05572,-14.2462 5.479882,0.4375 c -2.401585,-3.91671 -5.302125,-7.21229 -8.946144,-9.58219 -4.247926,1.25566 -7.303244,4.56962 -10.261382,8.05109 z"
         style="fill:#336c9c;fill-opacity:1;stroke:none" />
      <text
         sodipodi:linespacing="125%"
         id="text4457"
         y="1043.0065"
         x="1.3049691"
         style="font-size:73.063591px;font-style:normal;font-variant:normal;font-weight:bold;font-stretch:normal;text-align:start;line-height:125%;letter-spacing:0px;word-spacing:0px;writing-mode:lr-tb;text-anchor:start;fill:#000000;fill-opacity:1;stroke:none;font-family:Ubuntu Mono;-inkscape-font-specification:Ubuntu Mono Bold"
         xml:space="preserve"><tspan
           y="1043.0065"
           x="1.3049691"
           id="tspan4459"
           sodipodi:role="line">K</tspan></text>
      <path
         transform="matrix(0.5157895,0,0,0.55421686,25.119151,1010.3393)"
         d="m 58.544642,61.481018 c 0,3.981699 -3.694475,7.209503 -8.251841,7.209503 -4.557366,0 -8.251842,-3.227804 -8.251842,-7.209503 0,-3.981699 3.694476,-7.209503 8.251842,-7.209503 4.557366,0 8.251841,3.227804 8.251841,7.209503 z"
         sodipodi:ry="7.2095032"
         sodipodi:rx="8.2518415"
         sodipodi:cy="61.481018"
         sodipodi:cx="50.292801"
         id="path2993"
         style="fill:#336c9c;fill-opacity:1;stroke:none"
         sodipodi:type="arc" />
      <text
         sodipodi:linespacing="125%"
         id="text4457-6"
         y="1043.1841"
         x="0.99133211"
         style="font-size:73.063591px;font-style:normal;font-variant:normal;font-weight:bold;font-stretch:normal;text-align:start;line-height:125%;letter-spacing:0px;word-spacing:0px;writing-mode:lr-tb;text-anchor:start;opacity:0.41947566;fill:#dad9db;fill-opacity:1;stroke:none;filter:url(#filter3852);font-family:Ubuntu Mono;-inkscape-font-specification:Ubuntu Mono Bold"
         xml:space="preserve"><tspan
           y="1043.1841"
           x="0.99133211"
           id="tspan4459-8"
           sodipodi:role="line">K</tspan></text>
      <path
         sodipodi:nodetypes="cccccccccc"
         inkscape:connector-curvature="0"
         id="rect5347-1-0-89-1-8"
         d="m 40.081007,1000.328 5.479869,0.4376 0.669766,19.8323 1.69629,16.5529 5.225103,-0.4155 0.600896,-21.0675 0.05572,-14.2462 5.479882,0.4375 c -2.401585,-3.91681 -5.302125,-7.21231 -8.946144,-9.58221 -4.247926,1.2556 -7.303244,4.5696 -10.261382,8.05111 z"
         style="opacity:0.32835209;fill:#f4f8f8;fill-opacity:1;stroke:none;filter:url(#filter3909)" />
      <path
         transform="matrix(0.5157895,0,0,0.55421686,25.147257,1010.4481)"
         d="m 58.544642,61.481018 c 0,3.981699 -3.694475,7.209503 -8.251841,7.209503 -4.557366,0 -8.251842,-3.227804 -8.251842,-7.209503 0,-3.981699 3.694476,-7.209503 8.251842,-7.209503 4.557366,0 8.251841,3.227804 8.251841,7.209503 z"
         sodipodi:ry="7.2095032"
         sodipodi:rx="8.2518415"
         sodipodi:cy="61.481018"
         sodipodi:cx="50.292801"
         id="path2993-5"
         style="opacity:0.32835209;fill:#f4f8f8;fill-opacity:1;stroke:none;filter:url(#filter3913)"
         sodipodi:type="arc" />
    </g>
    <g
       transform="matrix(1.1640176,0,0,1.1640176,-282.85967,-99.596449)"
       id="layer1-5"
       inkscape:label="Capa 1">
      <path
         sodipodi:nodetypes="ccscscccc"
         inkscape:connector-curvature="0"
         id="rect5347-1"
         d="m 145.45769,981.135 1.05548,1.55557 c -1.69608,0.9347 -3.35248,2.439 -5.14775,4.42112 -1.33566,1.47471 -4.09009,4.5552 -6.21354,6.56163 0,0 7.1503,-4.34031 9.13797,-5.60938 1.80093,-1.14984 3.81266,-3.03265 3.81266,-3.03265 l 1.05546,1.5556 c 0.53123,-1.47858 0.78999,-2.9574 0.64274,-4.43653 -1.2437,-0.86472 -2.78138,-0.97094 -4.34302,-1.01536 z"
         style="fill:#336c9c;fill-opacity:0.68627451;stroke:none" />
      <path
         sodipodi:nodetypes="ccscscccc"
         inkscape:connector-curvature="0"
         id="rect5347-1-7"
         d="m 116.13877,983.66625 1.05549,1.55553 c -1.69607,0.93468 -3.35249,2.43903 -5.14774,4.42115 -1.33567,1.47471 -4.0901,4.55521 -6.21354,6.56163 0,0 7.15028,-4.34031 9.13795,-5.60939 1.80093,-1.14983 3.81266,-3.03261 3.81266,-3.03261 l 1.05548,1.55555 c 0.53123,-1.4786 0.78998,-2.9574 0.64272,-4.43652 -1.24369,-0.86469 -2.78138,-0.9709 -4.34302,-1.01534 z"
         style="fill:#336c9c;fill-opacity:0.68627451;stroke:none" />
      <path
         sodipodi:nodetypes="ccscscccc"
         inkscape:connector-curvature="0"
         id="rect5347-1-3"
         d="m 126.35282,998.454 1.05547,1.5556 c -1.69609,0.9348 -3.3525,2.439 -5.14774,4.4211 -1.33567,1.4748 -4.0901,4.5553 -6.21355,6.5617 0,0 7.15031,-4.3404 9.13795,-5.6093 1.80095,-1.15 3.81268,-3.0327 3.81268,-3.0327 l 1.05548,1.5555 c 0.53121,-1.4785 0.78997,-2.9574 0.64271,-4.43648 -1.2437,-0.86469 -2.78137,-0.97099 -4.343,-1.01542 z"
         style="fill:#336c9c;fill-opacity:0.68627451;stroke:none" />
      <path
         sodipodi:nodetypes="ccscscccc"
         inkscape:connector-curvature="0"
         id="rect5347-1-8"
         d="m 93.527587,1013.6904 0.828445,1.6874 c -1.809768,0.6893 -3.659601,1.9482 -5.713525,3.6608 -1.528099,1.2742 -4.684859,3.941 -7.067151,5.632 0,0 7.685297,-3.3018 9.830372,-4.2815 1.943577,-0.8878 4.197991,-2.4719 4.197991,-2.4719 l 0.828474,1.6874 c 0.732018,-1.39 1.1943,-2.8184 1.254566,-4.3036 -1.111094,-1.0296 -2.618966,-1.349 -4.159172,-1.6106 z"
         style="fill:#336c9c;fill-opacity:0.68627451;stroke:none" />
      <path
         sodipodi:nodetypes="ccscscccc"
         inkscape:connector-curvature="0"
         id="rect5347-1-85"
         d="m 99.236569,999.0375 1.055461,1.5557 c -1.696085,0.9347 -3.352452,2.4388 -5.147717,4.4209 -1.335689,1.4749 -4.090092,4.5553 -6.21356,6.5618 0,0 7.150319,-4.3404 9.137985,-5.6095 1.800924,-1.1499 3.812652,-3.0327 3.812652,-3.0327 l 1.05549,1.5556 c 0.53119,-1.4784 0.78996,-2.9573 0.64271,-4.4365 -1.24372,-0.86456 -2.78138,-0.97086 -4.343021,-1.0153 z"
         style="fill:#336c9c;fill-opacity:0.68627451;stroke:none" />
      <path
         sodipodi:nodetypes="ccscscccc"
         inkscape:connector-curvature="0"
         id="rect5347-1-81"
         d="m 107.97326,1008.5278 1.05548,1.5556 c -1.69607,0.9346 -3.35247,2.4389 -5.14772,4.421 -1.33569,1.4748 -4.090122,4.5553 -6.213556,6.5617 0,0 7.150286,-4.3402 9.137946,-5.6093 1.80096,-1.15 3.81266,-3.0327 3.81266,-3.0327 l 1.05549,1.5555 c 0.53122,-1.4785 0.78996,-2.9572 0.64273,-4.4365 -1.24372,-0.8646 -2.78139,-0.9709 -4.34303,-1.0153 z"
         style="fill:#336c9c;fill-opacity:0.68627451;stroke:none" />
      <path
         sodipodi:nodetypes="ccscscccc"
         inkscape:connector-curvature="0"
         id="rect5347-1-816"
         d="m 111.92585,996.76777 1.05546,1.55558 c -1.69609,0.93478 -3.35249,2.43905 -5.14773,4.42115 -1.33566,1.4746 -4.09009,4.5552 -6.21354,6.5616 0,0 7.15031,-4.3404 9.13795,-5.6093 1.80095,-1.15 3.81266,-3.0327 3.81266,-3.0327 l 1.05549,1.5555 c 0.53122,-1.4786 0.78998,-2.95736 0.64273,-4.43651 -1.2437,-0.86469 -2.7814,-0.97089 -4.34302,-1.01532 z"
         style="fill:#336c9c;fill-opacity:0.68627451;stroke:none" />
      <path
         sodipodi:nodetypes="ccscscccc"
         inkscape:connector-curvature="0"
         id="rect5347-1-51"
         d="m 94.527434,1025.8298 0.768475,1.7155 c -1.832944,0.6252 -3.725976,1.818 -5.839007,3.4572 -1.572057,1.2196 -4.820834,3.7733 -7.261251,5.3794 0,0 7.796898,-3.029 9.975169,-3.9324 1.973663,-0.8187 4.282509,-2.3224 4.282509,-2.3224 l 0.76847,1.7156 c 0.780591,-1.3635 1.292904,-2.7746 1.405492,-4.2568 -1.074111,-1.0681 -2.569797,-1.4405 -4.099857,-1.7561 z"
         style="fill:#336c9c;fill-opacity:0.68627451;stroke:none" />
      <path
         sodipodi:nodetypes="ccscscccc"
         inkscape:connector-curvature="0"
         id="rect5347-1-2"
         d="m 82.195863,1015.9868 0.508224,1.8099 c -1.904847,0.3492 -3.952502,1.2511 -6.283293,2.5623 -1.7341,0.9755 -5.322631,3.0246 -7.972391,4.2549 0,0 8.157082,-1.8512 10.444442,-2.4252 2.072456,-0.5199 4.577065,-1.6683 4.577065,-1.6683 l 0.508225,1.8099 c 0.972339,-1.2342 1.686288,-2.5547 2.015293,-4.0044 -0.905663,-1.2142 -2.330471,-1.8021 -3.797565,-2.3391 z"
         style="fill:#336c9c;fill-opacity:0.68627451;stroke:none" />
      <path
         sodipodi:nodetypes="ccscscccc"
         inkscape:connector-curvature="0"
         id="rect5347-1-0"
         d="m 79.953246,1031.1128 0.221439,1.8667 c -1.935954,0.05 -4.098732,0.623 -6.604653,1.5569 -1.864406,0.6948 -5.72729,2.1626 -8.535777,2.967 0,0 8.345475,-0.5637 10.694166,-0.776 2.128033,-0.1923 4.780428,-0.9384 4.780428,-0.9384 l 0.221411,1.8668 c 1.15195,-1.0684 2.062084,-2.2624 2.611899,-3.6434 -0.706408,-1.3399 -2.022815,-2.1417 -3.388913,-2.8996 z"
         style="fill:#336c9c;fill-opacity:0.68627451;stroke:none" />
      <path
         sodipodi:nodetypes="ccscscccc"
         inkscape:connector-curvature="0"
         id="rect5347-1-0-8"
         d="m 69.600165,1040.3095 -0.20822,1.8683 c -1.896609,-0.3915 -4.13317,-0.3238 -6.785663,0.017 -1.973485,0.2534 -6.068728,0.8058 -8.986534,0.9516 0,0 8.255583,1.3456 10.59109,1.6722 2.11612,0.2959 4.868641,0.1715 4.868641,0.1715 l -0.208171,1.8682 c 1.364391,-0.7788 2.521874,-1.735 3.370866,-2.9551 -0.383723,-1.4654 -1.48369,-2.5451 -2.642009,-3.5934 z"
         style="fill:#336c9c;fill-opacity:0.68627451;stroke:none" />
      <path
         sodipodi:nodetypes="ccscscccc"
         inkscape:connector-curvature="0"
         id="rect5347-1-0-1"
         d="m 61.51396,1032.6014 -0.46613,1.8212 c -1.823752,-0.6514 -4.047913,-0.8956 -6.721996,-0.9275 -1.989511,-0.024 -6.121787,-0.047 -9.031493,-0.308 0,0 7.988006,2.4813 10.255411,3.1295 2.054358,0.5875 4.797384,0.8475 4.797384,0.8475 l -0.46613,1.8212 c 1.459545,-0.5816 2.738751,-1.3674 3.749234,-2.4574 -0.176109,-1.5045 -1.115159,-2.7268 -2.116356,-3.9261 z"
         style="fill:#336c9c;fill-opacity:0.68627451;stroke:none" />
      <path
         sodipodi:nodetypes="ccscscccc"
         inkscape:connector-curvature="0"
         id="rect5347-1-0-3"
         d="m 67.07245,1022.5344 -0.836375,1.6836 c -1.647367,-1.0182 -3.771373,-1.7219 -6.379791,-2.3117 -1.940663,-0.4388 -5.976969,-1.3246 -8.767772,-2.1885 0,0 7.293226,4.0957 9.375096,5.2034 1.886266,1.0037 4.514504,1.831 4.514504,1.831 l -0.836385,1.6836 c 1.548858,-0.2638 2.964,-0.7649 4.180004,-1.6199 0.142143,-1.508 -0.520785,-2.8995 -1.249281,-4.2815 z"
         style="fill:#336c9c;fill-opacity:0.68627451;stroke:none" />
      <path
         sodipodi:nodetypes="ccscscccc"
         inkscape:connector-curvature="0"
         id="rect5347-1-0-14"
         d="m 49.959897,1036.5978 -0.772769,1.7137 c -1.684371,-0.9556 -3.83321,-1.5794 -6.461858,-2.0713 -1.955845,-0.3653 -6.02244,-1.0995 -8.843535,-1.8587 0,0 7.441419,3.8197 9.56329,4.8488 1.922485,0.9326 4.57986,1.6608 4.57986,1.6608 l -0.772769,1.7136 c 1.537879,-0.3214 2.933296,-0.8752 4.116439,-1.7751 0.08557,-1.5122 -0.62895,-2.8781 -1.408658,-4.2318 z"
         style="fill:#336c9c;fill-opacity:0.68627451;stroke:none" />
      <path
         sodipodi:nodetypes="ccscscccc"
         inkscape:connector-curvature="0"
         id="rect5347-1-0-89"
         d="m 50.108012,1022.4298 -1.220264,1.43 c -1.350747,-1.3877 -3.240184,-2.5864 -5.627207,-3.7921 -1.775909,-0.8972 -5.476194,-2.7369 -7.973597,-4.2526 0,0 6.079948,5.7444 7.830367,7.3248 1.585969,1.4318 3.93455,2.8727 3.93455,2.8727 l -1.220255,1.4299 c 1.566484,0.1204 3.060994,-0.022 4.448247,-0.5559 0.504202,-1.4284 0.199138,-2.9392 -0.171841,-4.4568 z"
         style="fill:#336c9c;fill-opacity:0.68627451;stroke:none" />
      <path
         sodipodi:nodetypes="ccscscccc"
         inkscape:connector-curvature="0"
         id="rect5347-1-0-6"
         d="m 42.44441,1027.0868 -1.243275,1.41 c -1.328091,-1.4094 -3.197874,-2.6385 -5.565044,-3.8827 -1.761177,-0.9257 -5.43115,-2.8252 -7.903669,-4.3813 0,0 5.986093,5.8423 7.710696,7.4507 1.56258,1.4573 3.887491,2.9361 3.887491,2.9361 l -1.243256,1.41 c 1.564334,0.1458 3.060943,0.028 4.45666,-0.4838 0.527265,-1.4199 0.246737,-2.9357 -0.0996,-4.459 z"
         style="fill:#336c9c;fill-opacity:0.68627451;stroke:none" />
      <path
         sodipodi:nodetypes="ccscscccc"
         inkscape:connector-curvature="0"
         id="rect5347-1-0-89-4"
         d="m 28.897378,1029.546 -1.411082,1.2421 c -1.139835,-1.5657 -2.839783,-3.0206 -5.031228,-4.5533 -1.630395,-1.1405 -5.031735,-3.4872 -7.288377,-5.3425 0,0 5.201938,6.5501 6.710036,8.3632 1.366409,1.6426 3.486401,3.4026 3.486401,3.4026 l -1.411101,1.2421 c 1.533552,0.3414 3.033068,0.4132 4.482107,0.082 0.702088,-1.3423 0.614791,-2.8812 0.463244,-4.436 z"
         style="fill:#336c9c;fill-opacity:0.68627451;stroke:none" />
      <path
         sodipodi:nodetypes="ccscscccc"
         inkscape:connector-curvature="0"
         id="rect5347-1-0-89-1-5"
         d="m 24.850809,1020.2891 -1.825718,0.448 c -0.285789,-1.9154 -1.119366,-3.9919 -2.352561,-6.3648 -0.917478,-1.7655 -2.846413,-5.42 -3.988146,-8.109 0,0 1.579664,8.214 2.077397,10.5191 0.450998,2.0885 1.515687,4.6299 1.515687,4.6299 l -1.825718,0.448 c 1.201175,1.0127 2.497412,1.77 3.935303,2.1469 1.243561,-0.865 1.878427,-2.2694 2.463737,-3.718 z"
         style="fill:#336c9c;fill-opacity:0.68627451;stroke:none" />
      <path
         sodipodi:nodetypes="ccscscccc"
         inkscape:connector-curvature="0"
         id="rect5347-1-30"
         d="m 139.25105,976.379 1.05549,1.55557 c -1.69609,0.93471 -3.35248,2.439 -5.14775,4.42111 -1.33567,1.47472 -4.09009,4.5552 -6.21354,6.56164 0,0 7.15029,-4.3403 9.13797,-5.60937 1.80092,-1.14985 3.81265,-3.03265 3.81265,-3.03265 l 1.05547,1.5556 c 0.53122,-1.47861 0.78998,-2.9574 0.64273,-4.43656 -1.24369,-0.8647 -2.78138,-0.9709 -4.34302,-1.01534 z"
         style="fill:#336c9c;fill-opacity:0.68627451;stroke:none" />
      <path
         sodipodi:nodetypes="ccscscccc"
         inkscape:connector-curvature="0"
         id="rect5347-1-1"
         d="m 125.23186,985.43661 0.76789,1.13173 c -1.23395,0.68004 -2.43903,1.77446 -3.74516,3.21652 -0.97173,1.07288 -2.97568,3.31404 -4.52054,4.77379 0,0 5.20207,-3.15771 6.64817,-4.08103 1.31023,-0.83655 2.77382,-2.2063 2.77382,-2.2063 l 0.7679,1.13172 c 0.38649,-1.07574 0.57474,-2.15161 0.4676,-3.22776 -0.90484,-0.62905 -2.02355,-0.70634 -3.15968,-0.73867 z"
         style="fill:#336c9c;fill-opacity:0.68627451;stroke:none" />
      <path
         sodipodi:nodetypes="ccscscccc"
         inkscape:connector-curvature="0"
         id="rect5347-1-4"
         d="m 126.9219,990.67936 0.91829,1.35342 c -1.47561,0.81318 -2.91672,2.12188 -4.47865,3.84643 -1.16206,1.283 -3.55847,3.9631 -5.40591,5.70879 0,0 6.22092,-3.77622 7.95023,-4.8803 1.56685,-1.00043 3.3171,-2.63847 3.3171,-2.63847 l 0.91828,1.35342 c 0.46219,-1.2865 0.68731,-2.573 0.55921,-3.85998 -1.08207,-0.75225 -2.41987,-0.84474 -3.77855,-0.88331 z"
         style="fill:#336c9c;fill-opacity:0.68627451;stroke:none" />
      <path
         sodipodi:nodetypes="ccscscccc"
         inkscape:connector-curvature="0"
         id="rect5347-1-00"
         d="m 143.40116,964.64318 1.05548,1.55557 c -1.69608,0.93472 -3.35248,2.43899 -5.14775,4.42113 -1.33566,1.4747 -4.09009,4.5552 -6.21354,6.56161 0,0 7.1503,-4.34031 9.13796,-5.60936 1.80093,-1.14986 3.81266,-3.03265 3.81266,-3.03265 l 1.05548,1.55558 c 0.53122,-1.47857 0.78997,-2.95738 0.64272,-4.43653 -1.24369,-0.86469 -2.78138,-0.97091 -4.34301,-1.01535 z"
         style="fill:#336c9c;fill-opacity:0.68627451;stroke:none" />
      <g
         transform="translate(-1.4285715,-1.0714282)"
         id="g3536">
        <path
           style="fill:#336c9c;fill-opacity:1;stroke:none"
           d="m 41.124037,964.22693 5.479869,0.4376 0.669766,19.8323 1.69629,16.55287 5.225103,-0.4155 0.600896,-21.06747 0.05572,-14.2462 5.479883,0.4375 c -2.401586,-3.9167 -5.302126,-7.2123 -8.946145,-9.5822 -4.247926,1.2557 -7.303244,4.5697 -10.261382,8.0511 z"
           id="rect5347-1-0-89-1-6"
           inkscape:connector-curvature="0"
           sodipodi:nodetypes="cccccccccc" />
        <text
           xml:space="preserve"
           style="font-size:73.063591px;font-style:normal;font-variant:normal;font-weight:bold;font-stretch:normal;text-align:start;line-height:125%;letter-spacing:0px;word-spacing:0px;writing-mode:lr-tb;text-anchor:start;fill:#000000;fill-opacity:1;stroke:none;font-family:Ubuntu Mono;-inkscape-font-specification:Ubuntu Mono Bold"
           x="2.3761046"
           y="1007.0142"
           id="text4457-64"
           sodipodi:linespacing="125%"><tspan
             sodipodi:role="line"
             id="tspan4459-6"
             x="2.3761046"
             y="1007.0142">K</tspan></text>
        <path
           sodipodi:type="arc"
           style="fill:#336c9c;fill-opacity:1;stroke:none"
           id="path2993-2"
           sodipodi:cx="50.292801"
           sodipodi:cy="61.481018"
           sodipodi:rx="8.2518415"
           sodipodi:ry="7.2095032"
           d="m 58.544642,61.481018 c 0,3.981699 -3.694475,7.209503 -8.251841,7.209503 -4.557366,0 -8.251842,-3.227804 -8.251842,-7.209503 0,-3.981699 3.694476,-7.209503 8.251842,-7.209503 4.557366,0 8.251841,3.227804 8.251841,7.209503 z"
           transform="matrix(0.5157895,0,0,0.55421686,26.190287,974.34703)" />
        <text
           xml:space="preserve"
           style="font-size:73.063591px;font-style:normal;font-variant:normal;font-weight:bold;font-stretch:normal;text-align:start;line-height:125%;letter-spacing:0px;word-spacing:0px;writing-mode:lr-tb;text-anchor:start;opacity:0.41947566;fill:#dad9db;fill-opacity:1;stroke:none;filter:url(#filter3852-6);font-family:Ubuntu Mono;-inkscape-font-specification:Ubuntu Mono Bold"
           x="2.0624678"
           y="1007.1918"
           id="text4457-6-2"
           sodipodi:linespacing="125%"><tspan
             sodipodi:role="line"
             id="tspan4459-8-4"
             x="2.0624678"
             y="1007.1918">K</tspan></text>
        <path
           style="opacity:0.32835209;fill:#f4f8f8;fill-opacity:1;stroke:none;filter:url(#filter3909-8)"
           d="m 41.152143,964.33573 5.479869,0.4376 0.669766,19.8323 1.69629,16.55287 5.225103,-0.4155 0.600896,-21.06747 0.05572,-14.2462 5.479877,0.4375 c -2.40158,-3.9168 -5.30212,-7.2123 -8.946139,-9.5822 -4.247926,1.2556 -7.303244,4.5696 -10.261382,8.0511 z"
           id="rect5347-1-0-89-1-8-0"
           inkscape:connector-curvature="0"
           sodipodi:nodetypes="cccccccccc" />
        <path
           sodipodi:type="arc"
           style="opacity:0.32835209;fill:#f4f8f8;fill-opacity:1;stroke:none;filter:url(#filter3913-3)"
           id="path2993-5-0"
           sodipodi:cx="50.292801"
           sodipodi:cy="61.481018"
           sodipodi:rx="8.2518415"
           sodipodi:ry="7.2095032"
           d="m 58.544642,61.481018 c 0,3.981699 -3.694475,7.209503 -8.251841,7.209503 -4.557366,0 -8.251842,-3.227804 -8.251842,-7.209503 0,-3.981699 3.694476,-7.209503 8.251842,-7.209503 4.557366,0 8.251841,3.227804 8.251841,7.209503 z"
           transform="matrix(0.5157895,0,0,0.55421686,26.218393,974.45583)" />
      </g>
    </g>
    <path
       sodipodi:nodetypes="cccccccc"
       inkscape:connector-curvature="0"
       id="rect5347"
       d="m 276.20214,953.58277 24.69581,19.04202 51.35839,-65.8954 37.18093,28.65275 -51.3799,65.91446 24.69579,19.0421 -74.10805,6.1786 z"
       style="fill:#ebebeb;fill-opacity:1;stroke:none" />
    <path
       sodipodi:nodetypes="cccccccc"
       inkscape:connector-curvature="0"
       id="rect5347-4"
       d="m 209.99716,974.25351 12.91986,9.96203 26.86866,-34.47385 19.45159,14.98998 -26.87992,34.48384 12.91985,9.96199 -38.77037,3.2325 z"
       style="fill:#ebebeb;fill-opacity:1;stroke:none" />
    <path
       sodipodi:nodetypes="cccccccc"
       inkscape:connector-curvature="0"
       id="rect5347-4-9"
       d="m 243.44184,1025.461 8.52585,6.574 17.7307,-22.7494 12.83615,9.8919 -17.73813,22.756 8.52585,6.574 -25.58468,2.1331 z"
       style="fill:#ebebeb;fill-opacity:1;stroke:none" />
    <path
       sodipodi:nodetypes="cccccccc"
       inkscape:connector-curvature="0"
       id="rect5347-4-9-8"
       d="m 20.588281,1015.9353 8.52585,6.5739 17.7307,-22.74937 12.83616,9.89197 -17.73814,22.7559 8.52585,6.574 -25.58467,2.1331 z"
       style="fill:#ebebeb;fill-opacity:1;stroke:none" />
    <path
       sodipodi:nodetypes="cccccccc"
       inkscape:connector-curvature="0"
       id="rect5347-4-9-8-9"
       d="m 88.916326,995.28429 5.36908,4.1399 11.165764,-14.3263 8.08346,6.2294 -11.17044,14.33041 5.36909,4.1399 -16.111744,1.3433 z"
       style="fill:#ebebeb;fill-opacity:1;stroke:none" />
    <path
       sodipodi:nodetypes="cccccccc"
       inkscape:connector-curvature="0"
       id="rect5347-4-9-1"
       d="m 156.66167,1011.1003 5.70137,4.3962 11.85681,-15.2129 8.58374,6.6149 -11.86177,15.2173 5.70137,4.3961 -17.10889,1.4264 z"
       style="fill:#ebebeb;fill-opacity:1;stroke:none" />
    <g
       transform="matrix(0.48691269,0,0,0.48691269,3.3454295,467.46729)"
       id="layer1-7"
       inkscape:label="Capa 1">
      <g
         transform="matrix(2.9374726,0,0,2.9374726,-256.41188,-1636.1654)"
         id="g3662">
        <text
           xml:space="preserve"
           style="font-size:73.063591px;font-style:normal;font-variant:normal;font-weight:bold;font-stretch:normal;text-align:start;line-height:125%;letter-spacing:0px;word-spacing:0px;writing-mode:lr-tb;text-anchor:start;fill:#000000;fill-opacity:1;stroke:none;font-family:Ubuntu Mono;-inkscape-font-specification:Ubuntu Mono Bold"
           x="87.986526"
           y="913.32257"
           id="text4457-9"
           sodipodi:linespacing="125%"><tspan
             sodipodi:role="line"
             id="tspan4459-70"
             x="87.986526"
             y="913.32257">K</tspan></text>
        <text
           xml:space="preserve"
           style="font-size:73.063591px;font-style:normal;font-variant:normal;font-weight:bold;font-stretch:normal;text-align:start;line-height:125%;letter-spacing:0px;word-spacing:0px;writing-mode:lr-tb;text-anchor:start;opacity:0.41947566;fill:#dad9db;fill-opacity:1;stroke:none;filter:url(#filter3852-7);font-family:Ubuntu Mono;-inkscape-font-specification:Ubuntu Mono Bold"
           x="87.672897"
           y="913.50012"
           id="text4457-6-4"
           sodipodi:linespacing="125%"><tspan
             sodipodi:role="line"
             id="tspan4459-8-7"
             x="87.672897"
             y="913.50012">K</tspan></text>
      </g>
      <g
         transform="matrix(2.4042685,0,0,2.4042685,367.7922,-1018.2994)"
         id="g3668">
        <path
           style="fill:#336c9c;fill-opacity:1;stroke:none"
           d="m 156.02889,809.92616 5.47987,0.4376 0.66976,19.8323 1.69629,16.55287 5.2251,-0.4155 0.6009,-21.06747 0.0557,-14.2462 5.47988,0.4375 c -2.40158,-3.9167 -5.30212,-7.2123 -8.94614,-9.5822 -4.24793,1.2557 -7.30325,4.5697 -10.26138,8.0511 z"
           id="rect5347-1-0-89-1-9"
           inkscape:connector-curvature="0"
           sodipodi:nodetypes="cccccccccc" />
        <path
           sodipodi:type="arc"
           style="fill:#336c9c;fill-opacity:1;stroke:none"
           id="path2993-23"
           sodipodi:cx="50.292801"
           sodipodi:cy="61.481018"
           sodipodi:rx="8.2518415"
           sodipodi:ry="7.2095032"
           d="m 58.544642,61.481018 c 0,3.981699 -3.694475,7.209503 -8.251841,7.209503 -4.557366,0 -8.251842,-3.227804 -8.251842,-7.209503 0,-3.981699 3.694476,-7.209503 8.251842,-7.209503 4.557366,0 8.251841,3.227804 8.251841,7.209503 z"
           transform="matrix(0.5157895,0,0,0.55421686,141.09514,820.04626)" />
        <path
           style="opacity:0.32835209;fill:#f4f8f8;fill-opacity:1;stroke:none;filter:url(#filter3909-1)"
           d="m 156.05699,810.03496 5.47987,0.4376 0.66977,19.8323 1.69629,16.55287 5.2251,-0.4155 0.6009,-21.06747 0.0557,-14.2462 5.47987,0.4375 c -2.40158,-3.9168 -5.30212,-7.2123 -8.94614,-9.5822 -4.24792,1.2556 -7.30324,4.5696 -10.26138,8.0511 z"
           id="rect5347-1-0-89-1-8-5"
           inkscape:connector-curvature="0"
           sodipodi:nodetypes="cccccccccc" />
        <path
           sodipodi:type="arc"
           style="opacity:0.32835209;fill:#f4f8f8;fill-opacity:1;stroke:none;filter:url(#filter3913-6)"
           id="path2993-5-9"
           sodipodi:cx="50.292801"
           sodipodi:cy="61.481018"
           sodipodi:rx="8.2518415"
           sodipodi:ry="7.2095032"
           d="m 58.544642,61.481018 c 0,3.981699 -3.694475,7.209503 -8.251841,7.209503 -4.557366,0 -8.251842,-3.227804 -8.251842,-7.209503 0,-3.981699 3.694476,-7.209503 8.251842,-7.209503 4.557366,0 8.251841,3.227804 8.251841,7.209503 z"
           transform="matrix(0.5157895,0,0,0.55421686,141.12324,820.15506)" />
      </g>
      <text
         sodipodi:linespacing="125%"
         id="text4457-7"
         y="1021.4556"
         x="101.70937"
         style="font-size:159.36853027px;font-style:normal;font-variant:normal;font-weight:normal;font-stretch:normal;text-align:start;line-height:125%;letter-spacing:0px;word-spacing:0px;writing-mode:lr-tb;text-anchor:start;opacity:0.86142321;fill:#000000;fill-opacity:1;stroke:none;font-family:Ubuntu Mono;-inkscape-font-specification:Ubuntu Mono"
         xml:space="preserve"><tspan
           y="1021.4556"
           x="101.70937"
           id="tspan4459-7"
           sodipodi:role="line">arelapan</tspan></text>
    </g>
  </g>
</svg>
