<?xml version="1.0" encoding="UTF-8" standalone="no"?>
<!-- Created with Inkscape (http://www.inkscape.org/) -->

<svg
   xmlns:dc="http://purl.org/dc/elements/1.1/"
   xmlns:cc="http://creativecommons.org/ns#"
   xmlns:rdf="http://www.w3.org/1999/02/22-rdf-syntax-ns#"
   xmlns:svg="http://www.w3.org/2000/svg"
   xmlns="http://www.w3.org/2000/svg"
   xmlns:sodipodi="http://sodipodi.sourceforge.net/DTD/sodipodi-0.dtd"
   xmlns:inkscape="http://www.inkscape.org/namespaces/inkscape"
   width="600"
   height="600"
   id="svg2"
   version="1.1"
   inkscape:version="0.48.3.1 r9886"
   sodipodi:docname="Nuevo documento 1">
  <defs
     id="defs4" />
  <sodipodi:namedview
     id="base"
     pagecolor="#ffffff"
     bordercolor="#666666"
     borderopacity="1.0"
     inkscape:pageopacity="0.0"
     inkscape:pageshadow="2"
     inkscape:zoom="0.49497475"
     inkscape:cx="300"
     inkscape:cy="291.42857"
     inkscape:document-units="px"
     inkscape:current-layer="layer1"
     showgrid="false"
     inkscape:window-width="1366"
     inkscape:window-height="694"
     inkscape:window-x="0"
     inkscape:window-y="25"
     inkscape:window-maximized="1" />
  <metadata
     id="metadata7">
    <rdf:RDF>
      <cc:Work
         rdf:about="">
        <dc:format>image/svg+xml</dc:format>
        <dc:type
           rdf:resource="http://purl.org/dc/dcmitype/StillImage" />
        <dc:title></dc:title>
      </cc:Work>
    </rdf:RDF>
  </metadata>
  <g
     inkscape:label="Capa 1"
     inkscape:groupmode="layer"
     id="layer1"
     transform="translate(0,-452.36218)">
    <path
       sodipodi:nodetypes="cccccccc"
       inkscape:connector-curvature="0"
       id="rect5347"
       d="m 928.23229,555.89827 0.24754,97.31492 260.71317,0.69329 0.4124,146.48236 -260.80144,-0.7098 0.24749,97.31491 L 772.13274,726.024 z"
       style="fill:#ebebeb;fill-opacity:1;stroke:none" />
    <path
       sodipodi:nodetypes="cccccccc"
       inkscape:connector-curvature="0"
       id="rect5347-4"
       d="m 419.34887,474.553 0.12951,50.91128 136.39472,0.3627 0.21574,76.63375 -136.4409,-0.37136 0.12949,50.91129 -82.09362,-89.44466 z"
       style="fill:#ebebeb;fill-opacity:1;stroke:none" />
    <path
       sodipodi:nodetypes="cccccccc"
       inkscape:connector-curvature="0"
       id="rect5347-4-9"
       d="m 219.60785,606.45292 0.0855,33.5965 90.00725,0.23934 0.14237,50.57082 -90.03772,-0.24506 0.0855,33.5965 -54.1738,-59.02478 z"
       style="fill:#ebebeb;fill-opacity:1;stroke:none" />
    <path
       sodipodi:nodetypes="cccccccc"
       inkscape:connector-curvature="0"
       id="rect5347-4-9-8"
       d="m 334.9118,881.58796 0.0855,33.5965 90.00726,0.23934 0.14236,50.57082 -90.03772,-0.24506 0.0854,33.5965 -54.1738,-59.02478 z"
       style="fill:#ebebeb;fill-opacity:1;stroke:none" />
    <path
       sodipodi:nodetypes="cccccccc"
       inkscape:connector-curvature="0"
       id="rect5347-4-9-8-9"
       d="m 65.494357,722.5018 0.05382,21.15711 56.681313,0.15073 0.0897,31.84655 -56.700504,-0.15432 0.05381,21.15711 -34.115498,-37.17036 z"
       style="fill:#ebebeb;fill-opacity:1;stroke:none" />
    <path
       sodipodi:nodetypes="cccccccc"
       inkscape:connector-curvature="0"
       id="rect5347-4-9-1"
       d="m 198.60985,802.63604 0.0572,22.46652 60.18931,0.16005 0.0952,33.81753 -60.20969,-0.16387 0.0571,22.46652 -36.2269,-39.47083 z"
       style="fill:#ebebeb;fill-opacity:1;stroke:none" />
  </g>
</svg>
